<!-- Exported by Character Map UWP -->
<svg height="100%" viewBox="0 0 1024 1024" width="100%" xmlns="http://www.w3.org/2000/svg" xmlns:xlink="http://www.w3.org/1999/xlink">
  <path d="M708,627L832,1024L512,778L192,1024L316,627L0,384L392,384L512,0L632,384L1024,384ZM710.5,850C697.833,808.667 685.167,767.583 672.5,726.75C659.833,685.917 646.833,644.833 633.5,603.5C667.833,577.833 701.667,552 735,526C768.333,500 802,474 836,448L585,448L512,214.5L439,448L188,448C222,474 255.667,500 289,526C322.333,552 356.167,577.833 390.5,603.5C377.167,644.833 364.167,685.917 351.5,726.75C338.833,767.583 326.167,808.667 313.5,850L512,697Z" fill="#000000" fill-opacity="1">
  </path>
</svg>