<!-- Exported by Character Map UWP -->
<svg height="100%" viewBox="0 0 1024 1024" width="100%" xmlns="http://www.w3.org/2000/svg" xmlns:xlink="http://www.w3.org/1999/xlink">
  <path d="M672,0C704.333,0 735.5,4.16669 765.5,12.5C795.5,20.8334 823.5,32.6667 849.5,48C875.5,63.3334 899.25,81.75 920.75,103.25C942.25,124.75 960.667,148.5 976,174.5C991.333,200.5 1003.17,228.5 1011.5,258.5C1019.83,288.5 1024,319.667 1024,352C1024,384.333 1019.83,415.5 1011.5,445.5C1003.17,475.5 991.333,503.5 976,529.5C960.667,555.5 942.25,579.25 920.75,600.75C899.25,622.25 875.5,640.667 849.5,656C823.5,671.333 795.5,683.167 765.5,691.5C735.5,699.833 704.333,704 672,704C630.333,704 590.417,697 552.25,683C514.083,669 479,648.833 447,622.5L54.5,1014.5C48.1667,1020.83 40.6667,1024 32,1024C23.3333,1024 15.8333,1020.83 9.5,1014.5C3.16667,1008.17 0,1000.67 0,992C0,983.333 3.16667,975.833 9.5,969.5L401.5,577C375.167,545 355,509.917 341,471.75C327,433.583 320,393.667 320,352C320,319.667 324.167,288.5 332.5,258.5C340.833,228.5 352.667,200.5 368,174.5C383.333,148.5 401.75,124.75 423.25,103.25C444.75,81.75 468.5,63.3334 494.5,48C520.5,32.6667 548.5,20.8334 578.5,12.5C608.5,4.16669 639.667,0 672,0ZM672,640C711.667,640 749,632.417 784,617.25C819,602.083 849.5,581.5 875.5,555.5C901.5,529.5 922.083,499 937.25,464C952.417,429 960,391.667 960,352C960,312.333 952.417,275 937.25,240C922.083,205 901.5,174.5 875.5,148.5C849.5,122.5 819,101.917 784,86.75C749,71.5834 711.667,64.0001 672,64C632.333,64.0001 595,71.5834 560,86.75C525,101.917 494.5,122.5 468.5,148.5C442.5,174.5 421.917,205 406.75,240C391.583,275 384,312.333 384,352C384,391.667 391.583,429 406.75,464C421.917,499 442.5,529.5 468.5,555.5C494.5,581.5 525,602.083 560,617.25C595,632.417 632.333,640 672,640Z" fill="#000000" fill-opacity="1">
  </path>
</svg>