<!-- Exported by Character Map UWP -->
<svg height="100%" viewBox="128 0 768 1024" width="100%" xmlns="http://www.w3.org/2000/svg" xmlns:xlink="http://www.w3.org/1999/xlink">
  <path d="M896,448L896,1024L128,1024L128,448L256,448L256,261C256,225 262.5,191.167 275.5,159.5C288.5,127.833 306.5,100.167 329.5,76.5C352.5,52.8334 379.583,34.1667 410.75,20.5C441.917,6.83337 475.667,0 512,0C548.333,0 582.083,6.83337 613.25,20.5C644.417,34.1667 671.5,52.8334 694.5,76.5C717.5,100.167 735.5,127.833 748.5,159.5C761.5,191.167 768,225 768,261L768,448ZM320,448L704,448L704,261C704,234 699.167,208.583 689.5,184.75C679.833,160.917 666.417,140 649.25,122C632.083,104 611.75,89.8334 588.25,79.5C564.75,69.1667 539.333,64.0001 512,64C484.667,64.0001 459.25,69.1667 435.75,79.5C412.25,89.8334 391.917,104 374.75,122C357.583,140 344.167,160.917 334.5,184.75C324.833,208.583 320,234 320,261ZM832,512L192,512L192,960L832,960Z" fill="#000000" fill-opacity="1">
  </path>
</svg>